<svg xmlns="http://www.w3.org/2000/svg" xmlns:xlink="http://www.w3.org/1999/xlink" width="48" zoomAndPan="magnify" viewBox="0 0 36 36.000001" height="48" preserveAspectRatio="xMidYMid meet" version="1.0"><defs><g/><clipPath id="2d10ea476b"><path d="M 20.929688 3.503906 L 27.464844 3.503906 L 27.464844 10.039062 L 20.929688 10.039062 Z M 20.929688 3.503906 " clip-rule="nonzero"/></clipPath><clipPath id="702dd4fd30"><path d="M 24.195312 3.503906 C 22.390625 3.503906 20.929688 4.964844 20.929688 6.769531 C 20.929688 8.574219 22.390625 10.039062 24.195312 10.039062 C 26 10.039062 27.464844 8.574219 27.464844 6.769531 C 27.464844 4.964844 26 3.503906 24.195312 3.503906 Z M 24.195312 3.503906 " clip-rule="nonzero"/></clipPath><clipPath id="fc4b9d37ae"><path d="M 8.535156 16.398438 L 15.070312 16.398438 L 15.070312 22.9375 L 8.535156 22.9375 Z M 8.535156 16.398438 " clip-rule="nonzero"/></clipPath><clipPath id="23de47f1ef"><path d="M 11.804688 16.398438 C 10 16.398438 8.535156 17.863281 8.535156 19.667969 C 8.535156 21.472656 10 22.9375 11.804688 22.9375 C 13.609375 22.9375 15.070312 21.472656 15.070312 19.667969 C 15.070312 17.863281 13.609375 16.398438 11.804688 16.398438 Z M 11.804688 16.398438 " clip-rule="nonzero"/></clipPath><clipPath id="4307d1d15b"><path d="M 20.929688 16.273438 L 27.464844 16.273438 L 27.464844 22.808594 L 20.929688 22.808594 Z M 20.929688 16.273438 " clip-rule="nonzero"/></clipPath><clipPath id="517b34471c"><path d="M 24.195312 16.273438 C 22.390625 16.273438 20.929688 17.738281 20.929688 19.542969 C 20.929688 21.347656 22.390625 22.808594 24.195312 22.808594 C 26 22.808594 27.464844 21.347656 27.464844 19.542969 C 27.464844 17.738281 26 16.273438 24.195312 16.273438 Z M 24.195312 16.273438 " clip-rule="nonzero"/></clipPath></defs><g clip-path="url(#2d10ea476b)"><g clip-path="url(#702dd4fd30)"><path fill="#7ed957" d="M 20.929688 3.503906 L 27.464844 3.503906 L 27.464844 10.039062 L 20.929688 10.039062 Z M 20.929688 3.503906 " fill-opacity="1" fill-rule="nonzero"/></g></g><g clip-path="url(#fc4b9d37ae)"><g clip-path="url(#23de47f1ef)"><path fill="#ff5757" d="M 8.535156 16.398438 L 15.070312 16.398438 L 15.070312 22.9375 L 8.535156 22.9375 Z M 8.535156 16.398438 " fill-opacity="1" fill-rule="nonzero"/></g></g><g clip-path="url(#4307d1d15b)"><g clip-path="url(#517b34471c)"><path fill="#5e17eb" d="M 20.929688 16.273438 L 27.464844 16.273438 L 27.464844 22.808594 L 20.929688 22.808594 Z M 20.929688 16.273438 " fill-opacity="1" fill-rule="nonzero"/></g></g><path stroke-linecap="butt" transform="matrix(0.729693, -0.00736417, 0.00736417, 0.729693, 15.063632, 18.904883)" fill="none" stroke-linejoin="miter" d="M -0.000912161 0.997574 L 8.029003 0.998314 " stroke="#ffffff" stroke-width="2" stroke-opacity="1" stroke-miterlimit="4"/><path stroke-linecap="butt" transform="matrix(0, -0.72973, 0.72973, 0, 23.461827, 16.269342)" fill="none" stroke-linejoin="miter" d="M -0.000259128 0.999794 L 8.543144 0.999794 " stroke="#ffffff" stroke-width="2" stroke-opacity="1" stroke-miterlimit="4"/><g fill="#ff5757" fill-opacity="1"><g transform="translate(8.271222, 27.729176)"><g><path d="M 1.207031 -0.394531 C 0.929688 -0.394531 0.691406 -0.53125 0.679688 -0.835938 L 0.113281 -0.835938 C 0.117188 -0.214844 0.625 0.0585938 1.183594 0.0585938 C 1.703125 0.0585938 2.234375 -0.160156 2.234375 -0.757812 C 2.234375 -1.722656 0.769531 -1.398438 0.769531 -1.847656 C 0.769531 -2.039062 0.992188 -2.113281 1.148438 -2.113281 C 1.425781 -2.113281 1.578125 -2.027344 1.609375 -1.761719 L 2.148438 -1.761719 C 2.128906 -2.339844 1.660156 -2.570312 1.140625 -2.570312 C 0.679688 -2.570312 0.195312 -2.324219 0.195312 -1.804688 C 0.195312 -0.867188 1.65625 -1.183594 1.65625 -0.691406 C 1.65625 -0.464844 1.382812 -0.394531 1.207031 -0.394531 Z M 1.207031 -0.394531 "/></g></g></g><g fill="#ff5757" fill-opacity="1"><g transform="translate(11.362617, 27.729176)"><g><path d="M 1.601562 -0.96875 L 0.960938 -0.96875 L 1.28125 -1.871094 Z M 2.546875 0 L 1.519531 -2.53125 L 1.046875 -2.53125 L 0.0195312 0 L 0.617188 0 L 0.800781 -0.511719 L 1.765625 -0.511719 L 1.949219 0 Z M 2.546875 0 "/></g></g></g><g fill="#ff5757" fill-opacity="1"><g transform="translate(14.673749, 27.729176)"><g><path d="M 1.652344 -1.015625 L 1.652344 -1.523438 L 0.78125 -1.523438 L 0.78125 -2.027344 L 1.691406 -2.027344 L 1.691406 -2.53125 L 0.222656 -2.53125 L 0.222656 0 L 0.78125 0 L 0.78125 -1.015625 Z M 1.652344 -1.015625 "/></g></g></g><g fill="#ff5757" fill-opacity="1"><g transform="translate(17.295876, 27.729176)"><g><path d="M 1.691406 -0.507812 L 0.78125 -0.507812 L 0.78125 -1.015625 L 1.652344 -1.015625 L 1.652344 -1.523438 L 0.78125 -1.523438 L 0.78125 -2.027344 L 1.691406 -2.027344 L 1.691406 -2.53125 L 0.222656 -2.53125 L 0.222656 0 L 1.691406 0 Z M 1.691406 -0.507812 "/></g></g></g><g fill="#ff5757" fill-opacity="1"><g transform="translate(19.955247, 27.729176)"><g><path d="M 0.773438 -0.515625 L 0.773438 -2.015625 L 0.941406 -2.015625 C 1.375 -2.015625 1.664062 -1.6875 1.664062 -1.265625 C 1.664062 -0.84375 1.371094 -0.515625 0.941406 -0.515625 Z M 0.222656 -2.53125 L 0.222656 0 L 0.976562 0 C 1.695312 0 2.234375 -0.550781 2.234375 -1.265625 C 2.234375 -1.980469 1.691406 -2.53125 0.976562 -2.53125 Z M 0.222656 -2.53125 "/></g></g></g><g fill="#ff5757" fill-opacity="1"><g transform="translate(23.065263, 27.729176)"><g><path d="M 1.691406 -0.507812 L 0.78125 -0.507812 L 0.78125 -1.015625 L 1.652344 -1.015625 L 1.652344 -1.523438 L 0.78125 -1.523438 L 0.78125 -2.027344 L 1.691406 -2.027344 L 1.691406 -2.53125 L 0.222656 -2.53125 L 0.222656 0 L 1.691406 0 Z M 1.691406 -0.507812 "/></g></g></g><g fill="#ff5757" fill-opacity="1"><g transform="translate(25.724635, 27.729176)"><g><path d="M 0.78125 -0.90625 L 1.171875 -0.90625 C 1.582031 -0.90625 1.949219 -1.207031 1.949219 -1.722656 C 1.949219 -2.203125 1.582031 -2.53125 1.171875 -2.53125 L 0.222656 -2.53125 L 0.222656 0 L 0.78125 0 Z M 1.082031 -2.09375 C 1.246094 -2.09375 1.414062 -1.953125 1.414062 -1.722656 C 1.414062 -1.480469 1.246094 -1.34375 1.082031 -1.34375 L 0.78125 -1.34375 L 0.78125 -2.09375 Z M 1.082031 -2.09375 "/></g></g></g></svg>