<svg xmlns="http://www.w3.org/2000/svg" xmlns:xlink="http://www.w3.org/1999/xlink" width="520" zoomAndPan="magnify" viewBox="0 0 390 42" height="56" preserveAspectRatio="xMidYMid meet" version="1.0"><defs><g/><clipPath id="b891944578"><path d="M 4.535156 0 L 385.464844 0 L 385.464844 41.023438 L 4.535156 41.023438 Z M 4.535156 0 " clip-rule="nonzero"/></clipPath><clipPath id="5a2fc19b9e"><path d="M 74.21875 3.195312 L 85.867188 3.195312 L 85.867188 14.84375 L 74.21875 14.84375 Z M 74.21875 3.195312 " clip-rule="nonzero"/></clipPath><clipPath id="6d6371a267"><path d="M 80.042969 3.195312 C 76.828125 3.195312 74.21875 5.800781 74.21875 9.019531 C 74.21875 12.234375 76.828125 14.84375 80.042969 14.84375 C 83.261719 14.84375 85.867188 12.234375 85.867188 9.019531 C 85.867188 5.800781 83.261719 3.195312 80.042969 3.195312 Z M 80.042969 3.195312 " clip-rule="nonzero"/></clipPath><clipPath id="d9db61a79a"><path d="M 52.132812 26.179688 L 63.78125 26.179688 L 63.78125 37.828125 L 52.132812 37.828125 Z M 52.132812 26.179688 " clip-rule="nonzero"/></clipPath><clipPath id="16099d2fed"><path d="M 57.957031 26.179688 C 54.738281 26.179688 52.132812 28.789062 52.132812 32.003906 C 52.132812 35.222656 54.738281 37.828125 57.957031 37.828125 C 61.171875 37.828125 63.78125 35.222656 63.78125 32.003906 C 63.78125 28.789062 61.171875 26.179688 57.957031 26.179688 Z M 57.957031 26.179688 " clip-rule="nonzero"/></clipPath><clipPath id="7e175ba84e"><path d="M 74.21875 25.957031 L 85.867188 25.957031 L 85.867188 37.605469 L 74.21875 37.605469 Z M 74.21875 25.957031 " clip-rule="nonzero"/></clipPath><clipPath id="ba65fa4cae"><path d="M 80.042969 25.957031 C 76.828125 25.957031 74.21875 28.566406 74.21875 31.78125 C 74.21875 35 76.828125 37.605469 80.042969 37.605469 C 83.261719 37.605469 85.867188 35 85.867188 31.78125 C 85.867188 28.566406 83.261719 25.957031 80.042969 25.957031 Z M 80.042969 25.957031 " clip-rule="nonzero"/></clipPath><clipPath id="af89a71384"><path d="M 51 19 L 87 19 L 87 41.023438 L 51 41.023438 Z M 51 19 " clip-rule="nonzero"/></clipPath></defs><g clip-path="url(#b891944578)"><path fill="#ffffff" d="M 4.535156 0 L 385.464844 0 L 385.464844 41.023438 L 4.535156 41.023438 Z M 4.535156 0 " fill-opacity="1" fill-rule="nonzero"/><path fill="#ffffff" d="M 4.535156 0 L 385.464844 0 L 385.464844 41.023438 L 4.535156 41.023438 Z M 4.535156 0 " fill-opacity="1" fill-rule="nonzero"/></g><g fill="#ff5757" fill-opacity="1"><g transform="translate(97.113875, 36.751449)"><g><path d="M 15.476562 -5.0625 C 11.941406 -5.0625 8.886719 -6.832031 8.695312 -10.699219 L 1.433594 -10.699219 C 1.480469 -2.769531 8.023438 0.765625 15.191406 0.765625 C 21.832031 0.765625 28.660156 -2.054688 28.660156 -9.695312 C 28.660156 -22.070312 9.886719 -17.914062 9.886719 -23.691406 C 9.886719 -26.128906 12.707031 -27.085938 14.710938 -27.085938 C 18.296875 -27.085938 20.253906 -25.984375 20.636719 -22.59375 L 27.5625 -22.59375 C 27.324219 -30 21.304688 -32.960938 14.617188 -32.960938 C 8.695312 -32.960938 2.484375 -29.808594 2.484375 -23.121094 C 2.484375 -11.128906 21.257812 -15.191406 21.257812 -8.886719 C 21.257812 -5.972656 17.722656 -5.0625 15.476562 -5.0625 Z M 15.476562 -5.0625 "/></g></g></g><g fill="#ff5757" fill-opacity="1"><g transform="translate(136.756911, 36.751449)"><g><path d="M 20.539062 -12.417969 L 12.324219 -12.417969 L 16.433594 -23.980469 Z M 32.671875 0 L 19.488281 -32.484375 L 13.421875 -32.484375 L 0.238281 0 L 7.929688 0 L 10.269531 -6.542969 L 22.640625 -6.542969 L 24.984375 0 Z M 32.671875 0 "/></g></g></g><g fill="#ff5757" fill-opacity="1"><g transform="translate(179.217776, 36.751449)"><g><path d="M 21.210938 -13.039062 L 21.210938 -19.539062 L 10.03125 -19.539062 L 10.03125 -25.984375 L 21.6875 -25.984375 L 21.6875 -32.484375 L 2.867188 -32.484375 L 2.867188 0 L 10.03125 0 L 10.03125 -13.039062 Z M 21.210938 -13.039062 "/></g></g></g><g fill="#ff5757" fill-opacity="1"><g transform="translate(212.843076, 36.751449)"><g><path d="M 21.6875 -6.496094 L 10.03125 -6.496094 L 10.03125 -13.039062 L 21.210938 -13.039062 L 21.210938 -19.539062 L 10.03125 -19.539062 L 10.03125 -25.984375 L 21.6875 -25.984375 L 21.6875 -32.484375 L 2.867188 -32.484375 L 2.867188 0 L 21.6875 0 Z M 21.6875 -6.496094 "/></g></g></g><g fill="#ff5757" fill-opacity="1"><g transform="translate(246.945971, 36.751449)"><g><path d="M 9.9375 -6.59375 L 9.9375 -25.84375 L 12.085938 -25.84375 C 17.625 -25.84375 21.351562 -21.640625 21.351562 -16.242188 C 21.351562 -10.84375 17.578125 -6.59375 12.085938 -6.59375 Z M 2.867188 -32.484375 L 2.867188 0 L 12.515625 0 C 21.734375 0 28.660156 -7.070312 28.660156 -16.242188 C 28.660156 -25.414062 21.6875 -32.484375 12.515625 -32.484375 Z M 2.867188 -32.484375 "/></g></g></g><g fill="#ff5757" fill-opacity="1"><g transform="translate(286.827796, 36.751449)"><g><path d="M 21.6875 -6.496094 L 10.03125 -6.496094 L 10.03125 -13.039062 L 21.210938 -13.039062 L 21.210938 -19.539062 L 10.03125 -19.539062 L 10.03125 -25.984375 L 21.6875 -25.984375 L 21.6875 -32.484375 L 2.867188 -32.484375 L 2.867188 0 L 21.6875 0 Z M 21.6875 -6.496094 "/></g></g></g><g fill="#ff5757" fill-opacity="1"><g transform="translate(320.9307, 36.751449)"><g><path d="M 10.03125 -11.609375 L 15.046875 -11.609375 C 20.300781 -11.609375 24.984375 -15.476562 24.984375 -22.070312 C 24.984375 -28.230469 20.300781 -32.484375 15.046875 -32.484375 L 2.867188 -32.484375 L 2.867188 0 L 10.03125 0 Z M 13.851562 -26.847656 C 15.953125 -26.847656 18.152344 -25.03125 18.152344 -22.070312 C 18.152344 -18.964844 15.953125 -17.246094 13.851562 -17.246094 L 10.03125 -17.246094 L 10.03125 -26.847656 Z M 13.851562 -26.847656 "/></g></g></g><g clip-path="url(#5a2fc19b9e)"><g clip-path="url(#6d6371a267)"><path fill="#7ed957" d="M 74.21875 3.195312 L 85.867188 3.195312 L 85.867188 14.84375 L 74.21875 14.84375 Z M 74.21875 3.195312 " fill-opacity="1" fill-rule="nonzero"/></g></g><g clip-path="url(#d9db61a79a)"><g clip-path="url(#16099d2fed)"><path fill="#ff5757" d="M 52.132812 26.179688 L 63.78125 26.179688 L 63.78125 37.828125 L 52.132812 37.828125 Z M 52.132812 26.179688 " fill-opacity="1" fill-rule="nonzero"/></g></g><g clip-path="url(#7e175ba84e)"><g clip-path="url(#ba65fa4cae)"><path fill="#5e17eb" d="M 74.21875 25.957031 L 85.867188 25.957031 L 85.867188 37.605469 L 74.21875 37.605469 Z M 74.21875 25.957031 " fill-opacity="1" fill-rule="nonzero"/></g></g><g clip-path="url(#af89a71384)"><path stroke-linecap="butt" transform="matrix(0.732521, -0.00739271, 0.00739271, 0.732521, 63.768598, 30.846858)" fill="none" stroke-linejoin="miter" d="M 0.00213768 1.499575 L 14.250881 1.499395 " stroke="#ffffff" stroke-width="3" stroke-opacity="1" stroke-miterlimit="4"/></g><path stroke-linecap="butt" transform="matrix(0, -0.732558, 0.732558, 0, 78.939687, 25.951585)" fill="none" stroke-linejoin="miter" d="M -0.00210235 1.500735 L 15.173741 1.500735 " stroke="#ffffff" stroke-width="3" stroke-opacity="1" stroke-miterlimit="4"/></svg>