<svg xmlns="http://www.w3.org/2000/svg" xmlns:xlink="http://www.w3.org/1999/xlink" width="1000" zoomAndPan="magnify" viewBox="0 0 750 299.999988" height="400" preserveAspectRatio="xMidYMid meet" version="1.0"><defs><g/><clipPath id="afe617c0cb"><path d="M 61.265625 85.574219 L 88.414062 85.574219 L 88.414062 112.722656 L 61.265625 112.722656 Z M 61.265625 85.574219 " clip-rule="nonzero"/></clipPath><clipPath id="9f1cc25a5e"><path d="M 74.839844 85.574219 C 67.34375 85.574219 61.265625 91.648438 61.265625 99.148438 C 61.265625 106.644531 67.34375 112.722656 74.839844 112.722656 C 82.335938 112.722656 88.414062 106.644531 88.414062 99.148438 C 88.414062 91.648438 82.335938 85.574219 74.839844 85.574219 Z M 74.839844 85.574219 " clip-rule="nonzero"/></clipPath><clipPath id="4f1ddc9807"><path d="M 9.785156 139.144531 L 36.933594 139.144531 L 36.933594 166.292969 L 9.785156 166.292969 Z M 9.785156 139.144531 " clip-rule="nonzero"/></clipPath><clipPath id="db50d34d92"><path d="M 23.359375 139.144531 C 15.863281 139.144531 9.785156 145.222656 9.785156 152.71875 C 9.785156 160.214844 15.863281 166.292969 23.359375 166.292969 C 30.855469 166.292969 36.933594 160.214844 36.933594 152.71875 C 36.933594 145.222656 30.855469 139.144531 23.359375 139.144531 Z M 23.359375 139.144531 " clip-rule="nonzero"/></clipPath><clipPath id="70ae90bf81"><path d="M 61.265625 138.625 L 88.414062 138.625 L 88.414062 165.773438 L 61.265625 165.773438 Z M 61.265625 138.625 " clip-rule="nonzero"/></clipPath><clipPath id="c5ee9639ab"><path d="M 74.839844 138.625 C 67.34375 138.625 61.265625 144.703125 61.265625 152.199219 C 61.265625 159.695312 67.34375 165.773438 74.839844 165.773438 C 82.335938 165.773438 88.414062 159.695312 88.414062 152.199219 C 88.414062 144.703125 82.335938 138.625 74.839844 138.625 Z M 74.839844 138.625 " clip-rule="nonzero"/></clipPath></defs><g fill="#ff5757" fill-opacity="1"><g transform="translate(103.404703, 166.9226)"><g><path d="M 39.3125 -12.863281 C 30.332031 -12.863281 22.566406 -17.351562 22.082031 -27.179688 L 3.640625 -27.179688 C 3.761719 -7.039062 20.382812 1.941406 38.585938 1.941406 C 55.449219 1.941406 72.800781 -5.21875 72.800781 -24.632812 C 72.800781 -56.058594 25.117188 -45.5 25.117188 -60.183594 C 25.117188 -66.371094 32.273438 -68.796875 37.371094 -68.796875 C 46.472656 -68.796875 51.445312 -66.007812 52.417969 -57.390625 L 70.011719 -57.390625 C 69.402344 -76.199219 54.117188 -83.722656 37.128906 -83.722656 C 22.082031 -83.722656 6.308594 -75.714844 6.308594 -58.726562 C 6.308594 -28.269531 53.992188 -38.585938 53.992188 -22.566406 C 53.992188 -15.167969 45.015625 -12.863281 39.3125 -12.863281 Z M 39.3125 -12.863281 "/></g></g></g><g fill="#ff5757" fill-opacity="1"><g transform="translate(204.100091, 166.9226)"><g><path d="M 52.175781 -31.546875 L 31.304688 -31.546875 L 41.738281 -60.910156 Z M 82.992188 0 L 49.503906 -82.507812 L 34.09375 -82.507812 L 0.605469 0 L 20.140625 0 L 26.085938 -16.621094 L 57.511719 -16.621094 L 63.457031 0 Z M 82.992188 0 "/></g></g></g><g fill="#ff5757" fill-opacity="1"><g transform="translate(311.952911, 166.9226)"><g><path d="M 53.871094 -33.125 L 53.871094 -49.625 L 25.480469 -49.625 L 25.480469 -66.007812 L 55.085938 -66.007812 L 55.085938 -82.507812 L 7.28125 -82.507812 L 7.28125 0 L 25.480469 0 L 25.480469 -33.125 Z M 53.871094 -33.125 "/></g></g></g><g fill="#ff5757" fill-opacity="1"><g transform="translate(397.362931, 166.9226)"><g><path d="M 55.085938 -16.5 L 25.480469 -16.5 L 25.480469 -33.125 L 53.871094 -33.125 L 53.871094 -49.625 L 25.480469 -49.625 L 25.480469 -66.007812 L 55.085938 -66.007812 L 55.085938 -82.507812 L 7.28125 -82.507812 L 7.28125 0 L 55.085938 0 Z M 55.085938 -16.5 "/></g></g></g><g fill="#ff5757" fill-opacity="1"><g transform="translate(483.98607, 166.9226)"><g><path d="M 25.238281 -16.746094 L 25.238281 -65.640625 L 30.699219 -65.640625 C 44.773438 -65.640625 54.238281 -54.964844 54.238281 -41.253906 C 54.238281 -27.542969 44.652344 -16.746094 30.699219 -16.746094 Z M 7.28125 -82.507812 L 7.28125 0 L 31.789062 0 C 55.207031 0 72.800781 -17.957031 72.800781 -41.253906 C 72.800781 -64.550781 55.085938 -82.507812 31.789062 -82.507812 Z M 7.28125 -82.507812 "/></g></g></g><g fill="#ff5757" fill-opacity="1"><g transform="translate(585.287995, 166.9226)"><g><path d="M 55.085938 -16.5 L 25.480469 -16.5 L 25.480469 -33.125 L 53.871094 -33.125 L 53.871094 -49.625 L 25.480469 -49.625 L 25.480469 -66.007812 L 55.085938 -66.007812 L 55.085938 -82.507812 L 7.28125 -82.507812 L 7.28125 0 L 55.085938 0 Z M 55.085938 -16.5 "/></g></g></g><g fill="#ff5757" fill-opacity="1"><g transform="translate(671.911156, 166.9226)"><g><path d="M 25.480469 -29.484375 L 38.21875 -29.484375 C 51.566406 -29.484375 63.457031 -39.3125 63.457031 -56.058594 C 63.457031 -71.707031 51.566406 -82.507812 38.21875 -82.507812 L 7.28125 -82.507812 L 7.28125 0 L 25.480469 0 Z M 35.1875 -68.191406 C 40.527344 -68.191406 46.105469 -63.578125 46.105469 -56.058594 C 46.105469 -48.171875 40.527344 -43.800781 35.1875 -43.800781 L 25.480469 -43.800781 L 25.480469 -68.191406 Z M 35.1875 -68.191406 "/></g></g></g><g clip-path="url(#afe617c0cb)"><g clip-path="url(#9f1cc25a5e)"><path fill="#7ed957" d="M 61.265625 85.574219 L 88.414062 85.574219 L 88.414062 112.722656 L 61.265625 112.722656 Z M 61.265625 85.574219 " fill-opacity="1" fill-rule="nonzero"/></g></g><g fill="#ff5757" fill-opacity="1"><g transform="translate(146.827912, 214.698806)"><g><path d="M 0.910156 -28.070312 L 8.417969 -28.070312 L 8.417969 -0.0898438 L 11.601562 -0.0898438 L 11.601562 -28.070312 L 19.109375 -28.070312 L 19.109375 -31.027344 L 0.910156 -31.027344 Z M 0.910156 -28.070312 "/></g></g></g><g fill="#ff5757" fill-opacity="1"><g transform="translate(175.945113, 214.698806)"><g><path d="M 13.695312 -15.878906 L 13.695312 -20.019531 C 13.058594 -20.289062 12.375 -20.425781 11.691406 -20.425781 C 9.417969 -20.425781 7.78125 -19.152344 6.734375 -16.695312 L 6.597656 -15.878906 L 6.597656 -20.019531 L 3.414062 -20.019531 L 3.414062 0 L 6.597656 0 L 6.597656 -10.007812 C 6.597656 -11.648438 6.960938 -13.101562 7.734375 -14.421875 C 8.097656 -15.105469 8.597656 -15.695312 9.191406 -16.152344 C 9.78125 -16.605469 10.507812 -16.878906 11.328125 -16.878906 C 12.148438 -16.878906 12.921875 -16.515625 13.695312 -15.878906 Z M 13.695312 -15.878906 "/></g></g></g><g fill="#ff5757" fill-opacity="1"><g transform="translate(199.193853, 214.698806)"><g><path d="M 17.242188 -3.414062 L 17.242188 0 L 20.425781 0 L 20.425781 -20.019531 L 17.242188 -20.019531 L 17.242188 -11.648438 C 17.242188 -8.824219 16.695312 -6.6875 15.648438 -5.09375 C 14.648438 -3.546875 12.875 -2.773438 10.417969 -2.773438 C 9.054688 -2.773438 8.050781 -3.230469 7.460938 -4.140625 C 6.871094 -5.050781 6.597656 -6.1875 6.597656 -7.507812 L 6.597656 -20.019531 L 3.414062 -20.019531 L 3.414062 -7.507812 C 3.414062 -5.1875 4.003906 -3.277344 5.277344 -1.773438 C 6.550781 -0.320312 8.28125 0.410156 10.554688 0.410156 C 13.511719 0.410156 15.742188 -0.863281 17.242188 -3.414062 Z M 17.242188 -3.414062 "/></g></g></g><g fill="#ff5757" fill-opacity="1"><g transform="translate(231.450007, 214.698806)"><g><path d="M 6.277344 -2.820312 C 5.503906 -3.367188 4.914062 -4.277344 4.59375 -5.597656 L 1.226562 -5.597656 C 1.910156 -1.457031 4.550781 0.589844 9.191406 0.589844 C 10.28125 0.589844 11.28125 0.5 12.238281 0.226562 C 13.195312 -0.046875 14.011719 -0.410156 14.785156 -0.910156 C 16.332031 -1.957031 17.105469 -3.546875 17.105469 -5.6875 C 17.105469 -7.871094 16.105469 -9.417969 14.011719 -10.417969 C 13.148438 -10.828125 12.191406 -11.144531 11.144531 -11.375 C 10.144531 -11.601562 9.191406 -11.875 8.324219 -12.148438 C 7.414062 -12.421875 6.6875 -12.785156 6.097656 -13.195312 C 5.503906 -13.601562 5.1875 -14.238281 5.1875 -15.148438 C 5.1875 -16.058594 5.550781 -16.742188 6.277344 -17.152344 C 7.007812 -17.605469 7.871094 -17.835938 8.824219 -17.835938 C 9.828125 -17.835938 10.691406 -17.605469 11.375 -17.242188 C 12.054688 -16.878906 12.601562 -16.152344 12.921875 -15.058594 L 16.332031 -15.058594 C 15.921875 -17.0625 15.058594 -18.472656 13.785156 -19.246094 C 12.464844 -20.0625 10.875 -20.472656 8.917969 -20.472656 C 7.007812 -20.472656 5.324219 -19.925781 3.914062 -18.925781 C 2.546875 -17.878906 1.820312 -16.378906 1.820312 -14.375 C 1.820312 -13.421875 2.09375 -12.554688 2.59375 -11.828125 C 3.140625 -11.054688 3.914062 -10.464844 4.914062 -10.007812 C 5.824219 -9.597656 6.777344 -9.28125 7.78125 -9.007812 C 8.78125 -8.78125 9.734375 -8.507812 10.644531 -8.234375 C 12.691406 -7.550781 13.738281 -6.550781 13.738281 -5.277344 C 13.738281 -3.09375 12.285156 -2.046875 9.371094 -2.046875 C 8.144531 -2.046875 7.097656 -2.273438 6.277344 -2.820312 Z M 6.277344 -2.820312 "/></g></g></g><g fill="#ff5757" fill-opacity="1"><g transform="translate(258.83851, 214.698806)"><g><path d="M 0.910156 -17.0625 L 5.914062 -17.0625 L 5.914062 0 L 9.097656 0 L 9.097656 -17.0625 L 14.058594 -17.0625 L 14.058594 -20.019531 L 9.097656 -20.019531 L 9.097656 -27.796875 L 5.914062 -27.796875 L 5.914062 -20.019531 L 0.910156 -20.019531 Z M 0.910156 -17.0625 "/></g></g></g><g fill="#ffffff" fill-opacity="1"><g transform="translate(282.929464, 214.698806)"><g/></g></g><g fill="#5e17eb" fill-opacity="1"><g transform="translate(304.327899, 214.698806)"><g><path d="M 23.613281 -8.597656 C 23.613281 -10.78125 23.066406 -12.648438 22.019531 -14.101562 C 20.925781 -15.558594 19.472656 -16.558594 17.699219 -17.0625 C 18.742188 -17.515625 19.652344 -18.335938 20.335938 -19.5625 C 20.65625 -20.109375 20.882812 -20.65625 21.0625 -21.246094 C 21.246094 -21.835938 21.335938 -22.65625 21.335938 -23.703125 C 21.335938 -24.703125 21.0625 -25.75 20.609375 -26.75 C 19.246094 -29.527344 16.289062 -30.9375 11.785156 -30.9375 L 3.414062 -30.9375 L 3.414062 0 L 12.875 0 C 16.015625 0 18.515625 -0.683594 20.425781 -2.136719 C 21.382812 -2.867188 22.15625 -3.820312 22.746094 -5.003906 C 23.292969 -6.140625 23.613281 -7.324219 23.613281 -8.597656 Z M 18.152344 -23.203125 C 18.152344 -21.519531 17.652344 -20.289062 16.652344 -19.472656 C 15.648438 -18.652344 14.332031 -18.242188 12.691406 -18.242188 L 6.597656 -18.242188 L 6.597656 -27.886719 L 11.785156 -27.886719 C 16.015625 -27.886719 18.152344 -26.296875 18.152344 -23.203125 Z M 20.425781 -9.234375 C 20.425781 -7.371094 19.789062 -5.867188 18.515625 -4.730469 C 17.289062 -3.59375 15.695312 -3.046875 13.785156 -3.046875 L 6.597656 -3.046875 L 6.597656 -15.058594 L 14.285156 -15.058594 C 15.878906 -15.058594 17.289062 -14.511719 18.515625 -13.421875 C 19.0625 -12.921875 19.515625 -12.328125 19.882812 -11.648438 C 20.246094 -10.917969 20.425781 -10.144531 20.425781 -9.234375 Z M 20.425781 -9.234375 "/></g></g></g><g fill="#5e17eb" fill-opacity="1"><g transform="translate(337.948831, 214.698806)"><g><path d="M 17.242188 -3.414062 L 17.242188 0 L 20.425781 0 L 20.425781 -20.019531 L 17.242188 -20.019531 L 17.242188 -11.648438 C 17.242188 -8.824219 16.695312 -6.6875 15.648438 -5.09375 C 14.648438 -3.546875 12.875 -2.773438 10.417969 -2.773438 C 9.054688 -2.773438 8.050781 -3.230469 7.460938 -4.140625 C 6.871094 -5.050781 6.597656 -6.1875 6.597656 -7.507812 L 6.597656 -20.019531 L 3.414062 -20.019531 L 3.414062 -7.507812 C 3.414062 -5.1875 4.003906 -3.277344 5.277344 -1.773438 C 6.550781 -0.320312 8.28125 0.410156 10.554688 0.410156 C 13.511719 0.410156 15.742188 -0.863281 17.242188 -3.414062 Z M 17.242188 -3.414062 "/></g></g></g><g fill="#5e17eb" fill-opacity="1"><g transform="translate(370.204985, 214.698806)"><g><path d="M 6.640625 -26.933594 C 6.234375 -27.296875 5.730469 -27.523438 5.1875 -27.523438 C 4.640625 -27.523438 4.140625 -27.296875 3.777344 -26.933594 C 3.367188 -26.523438 3.183594 -26.023438 3.183594 -25.476562 C 3.183594 -24.929688 3.367188 -24.429688 3.777344 -24.066406 C 4.140625 -23.65625 4.640625 -23.476562 5.1875 -23.476562 C 5.730469 -23.476562 6.234375 -23.65625 6.640625 -24.066406 C 7.007812 -24.429688 7.234375 -24.929688 7.234375 -25.476562 C 7.234375 -26.023438 7.007812 -26.523438 6.640625 -26.933594 Z M 6.824219 0 L 6.824219 -20.019531 L 3.640625 -20.019531 L 3.640625 0 Z M 6.824219 0 "/></g></g></g><g fill="#5e17eb" fill-opacity="1"><g transform="translate(389.723363, 214.698806)"><g><path d="M 6.597656 0 L 6.597656 -34.121094 L 3.414062 -34.121094 L 3.414062 0 Z M 6.597656 0 "/></g></g></g><g fill="#5e17eb" fill-opacity="1"><g transform="translate(408.832317, 214.698806)"><g><path d="M 19.335938 -10.007812 C 19.335938 -8.050781 18.652344 -6.324219 17.289062 -4.914062 C 15.921875 -3.457031 14.238281 -2.730469 12.285156 -2.730469 C 10.28125 -2.730469 8.597656 -3.457031 7.234375 -4.914062 C 5.867188 -6.324219 5.230469 -8.050781 5.230469 -10.007812 C 5.230469 -11.917969 5.867188 -13.648438 7.234375 -15.105469 C 8.597656 -16.558594 10.28125 -17.289062 12.285156 -17.289062 C 14.238281 -17.289062 15.921875 -16.558594 17.289062 -15.105469 C 18.652344 -13.648438 19.335938 -11.917969 19.335938 -10.007812 Z M 22.519531 0 L 22.519531 -34.121094 L 19.335938 -34.121094 L 19.335938 -16.558594 C 19.152344 -16.832031 18.925781 -17.0625 18.742188 -17.289062 C 16.832031 -19.382812 14.511719 -20.472656 11.785156 -20.472656 C 9.007812 -20.472656 6.6875 -19.382812 4.777344 -17.289062 C 2.957031 -15.195312 2.046875 -12.785156 2.046875 -10.007812 C 2.046875 -7.1875 2.957031 -4.777344 4.777344 -2.730469 C 6.6875 -0.589844 9.007812 0.453125 11.785156 0.453125 C 14.511719 0.453125 16.832031 -0.589844 18.742188 -2.730469 C 18.925781 -2.910156 19.152344 -3.140625 19.335938 -3.414062 L 19.335938 0 Z M 22.519531 0 "/></g></g></g><g fill="#ffffff" fill-opacity="1"><g transform="translate(443.874763, 214.698806)"><g/></g></g><g fill="#7ed957" fill-opacity="1"><g transform="translate(465.273206, 214.698806)"><g><path d="M 11.964844 -14.558594 C 15.96875 -13.601562 18.699219 -12.554688 20.152344 -11.375 C 21.15625 -10.554688 21.65625 -9.507812 21.65625 -8.234375 C 21.65625 -6.960938 21.382812 -5.914062 20.835938 -5.1875 C 19.472656 -3.277344 17.015625 -2.320312 13.558594 -2.320312 C 8.734375 -2.320312 6.003906 -3.957031 5.414062 -7.234375 L 1.683594 -7.234375 C 2.773438 -2 6.734375 0.589844 13.558594 0.589844 C 16.605469 0.589844 19.152344 -0.046875 21.199219 -1.410156 C 23.65625 -3.003906 24.929688 -5.367188 24.929688 -8.460938 C 24.929688 -11.011719 23.929688 -12.964844 21.929688 -14.332031 C 20.519531 -15.332031 18.242188 -16.242188 15.105469 -17.0625 C 11.917969 -17.878906 9.871094 -18.5625 8.917969 -19.0625 C 6.824219 -20.109375 5.777344 -21.566406 5.824219 -23.476562 C 5.824219 -24.476562 6.003906 -25.339844 6.460938 -25.976562 C 7.644531 -27.75 9.734375 -28.660156 12.738281 -28.660156 C 16.96875 -28.660156 19.382812 -27.296875 20.019531 -24.660156 L 23.476562 -24.660156 C 22.339844 -29.117188 18.742188 -31.390625 12.738281 -31.390625 C 10.007812 -31.390625 7.597656 -30.664062 5.597656 -29.207031 C 3.546875 -27.75 2.503906 -25.613281 2.503906 -22.703125 C 2.503906 -18.742188 5.6875 -16.015625 11.964844 -14.558594 Z M 11.964844 -14.558594 "/></g></g></g><g fill="#7ed957" fill-opacity="1"><g transform="translate(500.486353, 214.698806)"><g><path d="M 22.976562 -10.464844 C 22.976562 -13.195312 21.882812 -15.558594 19.789062 -17.605469 C 17.742188 -19.5625 15.285156 -20.5625 12.511719 -20.5625 C 9.597656 -20.5625 7.144531 -19.515625 5.09375 -17.46875 C 3.046875 -15.421875 2.046875 -12.964844 2.046875 -10.101562 C 2.046875 -7.1875 3.046875 -4.730469 5.09375 -2.730469 C 6.050781 -1.773438 7.144531 -1.046875 8.417969 -0.5 C 9.691406 0.046875 11.191406 0.320312 12.964844 0.320312 C 14.742188 0.320312 16.46875 -0.226562 18.199219 -1.320312 C 19.925781 -2.410156 21.199219 -3.957031 22.066406 -5.867188 L 18.425781 -5.867188 C 17.699219 -4.914062 16.832031 -4.183594 15.785156 -3.640625 C 14.742188 -3.09375 13.648438 -2.867188 12.511719 -2.867188 C 10.78125 -2.867188 9.234375 -3.414062 7.871094 -4.550781 C 6.503906 -5.640625 5.640625 -7.050781 5.367188 -8.78125 L 22.976562 -8.78125 Z M 19.609375 -11.511719 L 5.414062 -11.511719 C 5.597656 -12.328125 5.914062 -13.101562 6.371094 -13.832031 C 7.824219 -16.195312 9.871094 -17.378906 12.511719 -17.378906 C 14.195312 -17.378906 15.695312 -16.832031 17.015625 -15.742188 C 18.378906 -14.605469 19.199219 -13.195312 19.609375 -11.511719 Z M 19.609375 -11.511719 "/></g></g></g><g fill="#7ed957" fill-opacity="1"><g transform="translate(534.380226, 214.698806)"><g><path d="M 22.109375 -12.828125 C 21.472656 -15.058594 20.246094 -16.878906 18.472656 -18.289062 C 16.605469 -19.699219 14.558594 -20.425781 12.285156 -20.425781 C 9.417969 -20.425781 6.960938 -19.382812 5.003906 -17.332031 C 3.003906 -15.285156 2.046875 -12.828125 2.046875 -10.007812 C 2.046875 -7.144531 3.003906 -4.730469 5.003906 -2.640625 C 5.914062 -1.683594 6.960938 -0.910156 8.234375 -0.363281 C 9.464844 0.183594 10.738281 0.453125 12.011719 0.453125 C 13.285156 0.453125 14.421875 0.320312 15.421875 -0.046875 C 18.609375 -1.183594 20.792969 -3.320312 21.929688 -6.550781 L 18.335938 -6.550781 C 17.699219 -5.414062 16.878906 -4.503906 15.785156 -3.867188 C 14.695312 -3.183594 13.558594 -2.867188 12.285156 -2.867188 C 10.328125 -2.867188 8.691406 -3.546875 7.324219 -4.957031 C 5.960938 -6.371094 5.324219 -8.050781 5.324219 -10.007812 C 5.324219 -11.875 5.960938 -13.558594 7.324219 -14.96875 C 7.960938 -15.605469 8.691406 -16.152344 9.554688 -16.515625 C 10.371094 -16.878906 11.417969 -17.105469 12.601562 -17.105469 C 13.785156 -17.105469 14.921875 -16.695312 16.105469 -15.921875 C 17.242188 -15.105469 18.105469 -14.101562 18.652344 -12.828125 Z M 22.109375 -12.828125 "/></g></g></g><g fill="#7ed957" fill-opacity="1"><g transform="translate(567.182286, 214.698806)"><g><path d="M 17.242188 -3.414062 L 17.242188 0 L 20.425781 0 L 20.425781 -20.019531 L 17.242188 -20.019531 L 17.242188 -11.648438 C 17.242188 -8.824219 16.695312 -6.6875 15.648438 -5.09375 C 14.648438 -3.546875 12.875 -2.773438 10.417969 -2.773438 C 9.054688 -2.773438 8.050781 -3.230469 7.460938 -4.140625 C 6.871094 -5.050781 6.597656 -6.1875 6.597656 -7.507812 L 6.597656 -20.019531 L 3.414062 -20.019531 L 3.414062 -7.507812 C 3.414062 -5.1875 4.003906 -3.277344 5.277344 -1.773438 C 6.550781 -0.320312 8.28125 0.410156 10.554688 0.410156 C 13.511719 0.410156 15.742188 -0.863281 17.242188 -3.414062 Z M 17.242188 -3.414062 "/></g></g></g><g fill="#7ed957" fill-opacity="1"><g transform="translate(599.438441, 214.698806)"><g><path d="M 13.695312 -15.878906 L 13.695312 -20.019531 C 13.058594 -20.289062 12.375 -20.425781 11.691406 -20.425781 C 9.417969 -20.425781 7.78125 -19.152344 6.734375 -16.695312 L 6.597656 -15.878906 L 6.597656 -20.019531 L 3.414062 -20.019531 L 3.414062 0 L 6.597656 0 L 6.597656 -10.007812 C 6.597656 -11.648438 6.960938 -13.101562 7.734375 -14.421875 C 8.097656 -15.105469 8.597656 -15.695312 9.191406 -16.152344 C 9.78125 -16.605469 10.507812 -16.878906 11.328125 -16.878906 C 12.148438 -16.878906 12.921875 -16.515625 13.695312 -15.878906 Z M 13.695312 -15.878906 "/></g></g></g><g fill="#7ed957" fill-opacity="1"><g transform="translate(622.68718, 214.698806)"><g><path d="M 22.976562 -10.464844 C 22.976562 -13.195312 21.882812 -15.558594 19.789062 -17.605469 C 17.742188 -19.5625 15.285156 -20.5625 12.511719 -20.5625 C 9.597656 -20.5625 7.144531 -19.515625 5.09375 -17.46875 C 3.046875 -15.421875 2.046875 -12.964844 2.046875 -10.101562 C 2.046875 -7.1875 3.046875 -4.730469 5.09375 -2.730469 C 6.050781 -1.773438 7.144531 -1.046875 8.417969 -0.5 C 9.691406 0.046875 11.191406 0.320312 12.964844 0.320312 C 14.742188 0.320312 16.46875 -0.226562 18.199219 -1.320312 C 19.925781 -2.410156 21.199219 -3.957031 22.066406 -5.867188 L 18.425781 -5.867188 C 17.699219 -4.914062 16.832031 -4.183594 15.785156 -3.640625 C 14.742188 -3.09375 13.648438 -2.867188 12.511719 -2.867188 C 10.78125 -2.867188 9.234375 -3.414062 7.871094 -4.550781 C 6.503906 -5.640625 5.640625 -7.050781 5.367188 -8.78125 L 22.976562 -8.78125 Z M 19.609375 -11.511719 L 5.414062 -11.511719 C 5.597656 -12.328125 5.914062 -13.101562 6.371094 -13.832031 C 7.824219 -16.195312 9.871094 -17.378906 12.511719 -17.378906 C 14.195312 -17.378906 15.695312 -16.832031 17.015625 -15.742188 C 18.378906 -14.605469 19.199219 -13.195312 19.609375 -11.511719 Z M 19.609375 -11.511719 "/></g></g></g><g clip-path="url(#4f1ddc9807)"><g clip-path="url(#db50d34d92)"><path fill="#ff5757" d="M 9.785156 139.144531 L 36.933594 139.144531 L 36.933594 166.292969 L 9.785156 166.292969 Z M 9.785156 139.144531 " fill-opacity="1" fill-rule="nonzero"/></g></g><g clip-path="url(#70ae90bf81)"><g clip-path="url(#c5ee9639ab)"><path fill="#5e17eb" d="M 61.265625 138.625 L 88.414062 138.625 L 88.414062 165.773438 L 61.265625 165.773438 Z M 61.265625 138.625 " fill-opacity="1" fill-rule="nonzero"/></g></g><path stroke-linecap="butt" transform="matrix(0.749962, -0.00756873, 0.00756873, 0.749962, 36.896324, 148.831101)" fill="none" stroke-linejoin="miter" d="M -0.00078041 5.001487 L 32.443588 5.000778 " stroke="#ffffff" stroke-width="10" stroke-opacity="1" stroke-miterlimit="4"/><path stroke-linecap="butt" transform="matrix(0, -0.75, 0.75, 0, 71.088504, 138.621829)" fill="none" stroke-linejoin="miter" d="M 0.000979906 5.001787 L 34.537441 5.001787 " stroke="#ffffff" stroke-width="10" stroke-opacity="1" stroke-miterlimit="4"/></svg>