<svg xmlns="http://www.w3.org/2000/svg" xmlns:xlink="http://www.w3.org/1999/xlink" width="500" zoomAndPan="magnify" viewBox="0 0 375 149.999998" height="200" preserveAspectRatio="xMidYMid meet" version="1.0"><defs><g/><clipPath id="ad74dae140"><path d="M 30.632812 42.785156 L 44.207031 42.785156 L 44.207031 56.359375 L 30.632812 56.359375 Z M 30.632812 42.785156 " clip-rule="nonzero"/></clipPath><clipPath id="c11ca279f4"><path d="M 37.421875 42.785156 C 33.671875 42.785156 30.632812 45.824219 30.632812 49.574219 C 30.632812 53.320312 33.671875 56.359375 37.421875 56.359375 C 41.167969 56.359375 44.207031 53.320312 44.207031 49.574219 C 44.207031 45.824219 41.167969 42.785156 37.421875 42.785156 Z M 37.421875 42.785156 " clip-rule="nonzero"/></clipPath><clipPath id="efc6c4213f"><path d="M 4.894531 69.570312 L 18.46875 69.570312 L 18.46875 83.144531 L 4.894531 83.144531 Z M 4.894531 69.570312 " clip-rule="nonzero"/></clipPath><clipPath id="b10e6e9a13"><path d="M 11.679688 69.570312 C 7.933594 69.570312 4.894531 72.609375 4.894531 76.359375 C 4.894531 80.109375 7.933594 83.144531 11.679688 83.144531 C 15.429688 83.144531 18.46875 80.109375 18.46875 76.359375 C 18.46875 72.609375 15.429688 69.570312 11.679688 69.570312 Z M 11.679688 69.570312 " clip-rule="nonzero"/></clipPath><clipPath id="687215ca49"><path d="M 30.632812 69.3125 L 44.207031 69.3125 L 44.207031 82.886719 L 30.632812 82.886719 Z M 30.632812 69.3125 " clip-rule="nonzero"/></clipPath><clipPath id="7a8c091c2b"><path d="M 37.421875 69.3125 C 33.671875 69.3125 30.632812 72.351562 30.632812 76.097656 C 30.632812 79.847656 33.671875 82.886719 37.421875 82.886719 C 41.167969 82.886719 44.207031 79.847656 44.207031 76.097656 C 44.207031 72.351562 41.167969 69.3125 37.421875 69.3125 Z M 37.421875 69.3125 " clip-rule="nonzero"/></clipPath></defs><rect x="-37.5" width="450" fill="#ffffff" y="-15" height="179.999997" fill-opacity="1"/><rect x="-37.5" width="450" fill="#ffffff" y="-15" height="179.999997" fill-opacity="1"/><g fill="#ff5757" fill-opacity="1"><g transform="translate(51.702349, 83.461304)"><g><path d="M 19.65625 -6.429688 C 15.167969 -6.429688 11.285156 -8.675781 11.042969 -13.589844 L 1.820312 -13.589844 C 1.878906 -3.519531 10.191406 0.96875 19.292969 0.96875 C 27.726562 0.96875 36.402344 -2.609375 36.402344 -12.316406 C 36.402344 -28.027344 12.558594 -22.75 12.558594 -30.089844 C 12.558594 -33.183594 16.136719 -34.398438 18.6875 -34.398438 C 23.234375 -34.398438 25.722656 -33.003906 26.207031 -28.695312 L 35.003906 -28.695312 C 34.703125 -38.097656 27.058594 -41.859375 18.5625 -41.859375 C 11.042969 -41.859375 3.15625 -37.855469 3.15625 -29.363281 C 3.15625 -14.136719 26.996094 -19.292969 26.996094 -11.285156 C 26.996094 -7.582031 22.507812 -6.429688 19.65625 -6.429688 Z M 19.65625 -6.429688 "/></g></g></g><g fill="#ff5757" fill-opacity="1"><g transform="translate(102.050045, 83.461304)"><g><path d="M 26.085938 -15.773438 L 15.652344 -15.773438 L 20.871094 -30.457031 Z M 41.496094 0 L 24.753906 -41.253906 L 17.046875 -41.253906 L 0.304688 0 L 10.070312 0 L 13.042969 -8.3125 L 28.757812 -8.3125 L 31.730469 0 Z M 41.496094 0 "/></g></g></g><g fill="#ff5757" fill-opacity="1"><g transform="translate(155.976456, 83.461304)"><g><path d="M 26.9375 -16.5625 L 26.9375 -24.8125 L 12.738281 -24.8125 L 12.738281 -33.003906 L 27.542969 -33.003906 L 27.542969 -41.253906 L 3.640625 -41.253906 L 3.640625 0 L 12.738281 0 L 12.738281 -16.5625 Z M 26.9375 -16.5625 "/></g></g></g><g fill="#ff5757" fill-opacity="1"><g transform="translate(198.681467, 83.461304)"><g><path d="M 27.542969 -8.25 L 12.738281 -8.25 L 12.738281 -16.5625 L 26.9375 -16.5625 L 26.9375 -24.8125 L 12.738281 -24.8125 L 12.738281 -33.003906 L 27.542969 -33.003906 L 27.542969 -41.253906 L 3.640625 -41.253906 L 3.640625 0 L 27.542969 0 Z M 27.542969 -8.25 "/></g></g></g><g fill="#ff5757" fill-opacity="1"><g transform="translate(241.993037, 83.461304)"><g><path d="M 12.617188 -8.371094 L 12.617188 -32.820312 L 15.347656 -32.820312 C 22.386719 -32.820312 27.117188 -27.480469 27.117188 -20.625 C 27.117188 -13.773438 22.324219 -8.371094 15.347656 -8.371094 Z M 3.640625 -41.253906 L 3.640625 0 L 15.894531 0 C 27.605469 0 36.402344 -8.980469 36.402344 -20.625 C 36.402344 -32.273438 27.542969 -41.253906 15.894531 -41.253906 Z M 3.640625 -41.253906 "/></g></g></g><g fill="#ff5757" fill-opacity="1"><g transform="translate(292.644001, 83.461304)"><g><path d="M 27.542969 -8.25 L 12.738281 -8.25 L 12.738281 -16.5625 L 26.9375 -16.5625 L 26.9375 -24.8125 L 12.738281 -24.8125 L 12.738281 -33.003906 L 27.542969 -33.003906 L 27.542969 -41.253906 L 3.640625 -41.253906 L 3.640625 0 L 27.542969 0 Z M 27.542969 -8.25 "/></g></g></g><g fill="#ff5757" fill-opacity="1"><g transform="translate(335.955583, 83.461304)"><g><path d="M 12.738281 -14.742188 L 19.109375 -14.742188 C 25.785156 -14.742188 31.730469 -19.65625 31.730469 -28.027344 C 31.730469 -35.855469 25.785156 -41.253906 19.109375 -41.253906 L 3.640625 -41.253906 L 3.640625 0 L 12.738281 0 Z M 17.59375 -34.09375 C 20.261719 -34.09375 23.054688 -31.789062 23.054688 -28.027344 C 23.054688 -24.085938 20.261719 -21.902344 17.59375 -21.902344 L 12.738281 -21.902344 L 12.738281 -34.09375 Z M 17.59375 -34.09375 "/></g></g></g><g clip-path="url(#ad74dae140)"><g clip-path="url(#c11ca279f4)"><path fill="#7ed957" d="M 30.632812 42.785156 L 44.207031 42.785156 L 44.207031 56.359375 L 30.632812 56.359375 Z M 30.632812 42.785156 " fill-opacity="1" fill-rule="nonzero"/></g></g><g fill="#ff5757" fill-opacity="1"><g transform="translate(73.413954, 107.349409)"><g><path d="M 0.453125 -14.035156 L 4.207031 -14.035156 L 4.207031 -0.046875 L 5.800781 -0.046875 L 5.800781 -14.035156 L 9.554688 -14.035156 L 9.554688 -15.515625 L 0.453125 -15.515625 Z M 0.453125 -14.035156 "/></g></g></g><g fill="#ff5757" fill-opacity="1"><g transform="translate(87.972555, 107.349409)"><g><path d="M 6.847656 -7.9375 L 6.847656 -10.007812 C 6.527344 -10.144531 6.1875 -10.214844 5.847656 -10.214844 C 4.707031 -10.214844 3.890625 -9.578125 3.367188 -8.347656 L 3.296875 -7.9375 L 3.296875 -10.007812 L 1.707031 -10.007812 L 1.707031 0 L 3.296875 0 L 3.296875 -5.003906 C 3.296875 -5.824219 3.480469 -6.550781 3.867188 -7.210938 C 4.050781 -7.550781 4.300781 -7.847656 4.59375 -8.074219 C 4.890625 -8.304688 5.253906 -8.4375 5.664062 -8.4375 C 6.074219 -8.4375 6.460938 -8.257812 6.847656 -7.9375 Z M 6.847656 -7.9375 "/></g></g></g><g fill="#ff5757" fill-opacity="1"><g transform="translate(99.596925, 107.349409)"><g><path d="M 8.621094 -1.707031 L 8.621094 0 L 10.214844 0 L 10.214844 -10.007812 L 8.621094 -10.007812 L 8.621094 -5.824219 C 8.621094 -4.414062 8.347656 -3.34375 7.824219 -2.546875 C 7.324219 -1.773438 6.4375 -1.386719 5.210938 -1.386719 C 4.527344 -1.386719 4.027344 -1.613281 3.730469 -2.070312 C 3.433594 -2.523438 3.296875 -3.09375 3.296875 -3.753906 L 3.296875 -10.007812 L 1.707031 -10.007812 L 1.707031 -3.753906 C 1.707031 -2.59375 2 -1.636719 2.640625 -0.886719 C 3.277344 -0.160156 4.140625 0.203125 5.277344 0.203125 C 6.757812 0.203125 7.871094 -0.433594 8.621094 -1.707031 Z M 8.621094 -1.707031 "/></g></g></g><g fill="#ff5757" fill-opacity="1"><g transform="translate(115.725003, 107.349409)"><g><path d="M 3.140625 -1.410156 C 2.753906 -1.683594 2.457031 -2.136719 2.296875 -2.796875 L 0.613281 -2.796875 C 0.957031 -0.726562 2.273438 0.296875 4.59375 0.296875 C 5.140625 0.296875 5.640625 0.25 6.117188 0.113281 C 6.597656 -0.0234375 7.007812 -0.203125 7.394531 -0.453125 C 8.167969 -0.976562 8.554688 -1.773438 8.554688 -2.84375 C 8.554688 -3.933594 8.050781 -4.707031 7.007812 -5.210938 C 6.574219 -5.414062 6.097656 -5.574219 5.574219 -5.6875 C 5.074219 -5.800781 4.59375 -5.9375 4.164062 -6.074219 C 3.707031 -6.210938 3.34375 -6.390625 3.046875 -6.597656 C 2.753906 -6.800781 2.59375 -7.121094 2.59375 -7.574219 C 2.59375 -8.03125 2.773438 -8.371094 3.140625 -8.574219 C 3.503906 -8.804688 3.933594 -8.917969 4.414062 -8.917969 C 4.914062 -8.917969 5.34375 -8.804688 5.6875 -8.621094 C 6.027344 -8.4375 6.300781 -8.074219 6.460938 -7.53125 L 8.167969 -7.53125 C 7.960938 -8.53125 7.53125 -9.234375 6.890625 -9.621094 C 6.234375 -10.03125 5.4375 -10.238281 4.457031 -10.238281 C 3.503906 -10.238281 2.660156 -9.964844 1.957031 -9.464844 C 1.273438 -8.941406 0.910156 -8.1875 0.910156 -7.1875 C 0.910156 -6.710938 1.046875 -6.277344 1.296875 -5.914062 C 1.570312 -5.527344 1.957031 -5.230469 2.457031 -5.003906 C 2.910156 -4.800781 3.390625 -4.640625 3.890625 -4.503906 C 4.390625 -4.390625 4.867188 -4.253906 5.324219 -4.117188 C 6.347656 -3.777344 6.871094 -3.277344 6.871094 -2.640625 C 6.871094 -1.546875 6.140625 -1.023438 4.6875 -1.023438 C 4.070312 -1.023438 3.546875 -1.136719 3.140625 -1.410156 Z M 3.140625 -1.410156 "/></g></g></g><g fill="#ff5757" fill-opacity="1"><g transform="translate(129.419254, 107.349409)"><g><path d="M 0.453125 -8.53125 L 2.957031 -8.53125 L 2.957031 0 L 4.550781 0 L 4.550781 -8.53125 L 7.027344 -8.53125 L 7.027344 -10.007812 L 4.550781 -10.007812 L 4.550781 -13.898438 L 2.957031 -13.898438 L 2.957031 -10.007812 L 0.453125 -10.007812 Z M 0.453125 -8.53125 "/></g></g></g><g fill="#ffffff" fill-opacity="1"><g transform="translate(141.464731, 107.349409)"><g/></g></g><g fill="#5e17eb" fill-opacity="1"><g transform="translate(152.163949, 107.349409)"><g><path d="M 11.804688 -4.300781 C 11.804688 -5.390625 11.53125 -6.324219 11.011719 -7.050781 C 10.464844 -7.78125 9.734375 -8.28125 8.847656 -8.53125 C 9.371094 -8.757812 9.828125 -9.167969 10.167969 -9.78125 C 10.328125 -10.054688 10.441406 -10.328125 10.53125 -10.625 C 10.625 -10.917969 10.667969 -11.328125 10.667969 -11.851562 C 10.667969 -12.351562 10.53125 -12.875 10.304688 -13.375 C 9.621094 -14.761719 8.144531 -15.46875 5.890625 -15.46875 L 1.707031 -15.46875 L 1.707031 0 L 6.4375 0 C 8.007812 0 9.257812 -0.339844 10.214844 -1.070312 C 10.691406 -1.433594 11.078125 -1.910156 11.375 -2.503906 C 11.648438 -3.070312 11.804688 -3.664062 11.804688 -4.300781 Z M 9.078125 -11.601562 C 9.078125 -10.757812 8.824219 -10.144531 8.324219 -9.734375 C 7.824219 -9.328125 7.164062 -9.121094 6.347656 -9.121094 L 3.296875 -9.121094 L 3.296875 -13.945312 L 5.890625 -13.945312 C 8.007812 -13.945312 9.078125 -13.148438 9.078125 -11.601562 Z M 10.214844 -4.617188 C 10.214844 -3.683594 9.894531 -2.933594 9.257812 -2.367188 C 8.644531 -1.796875 7.847656 -1.523438 6.890625 -1.523438 L 3.296875 -1.523438 L 3.296875 -7.53125 L 7.144531 -7.53125 C 7.9375 -7.53125 8.644531 -7.257812 9.257812 -6.710938 C 9.53125 -6.460938 9.757812 -6.164062 9.941406 -5.824219 C 10.121094 -5.460938 10.214844 -5.074219 10.214844 -4.617188 Z M 10.214844 -4.617188 "/></g></g></g><g fill="#5e17eb" fill-opacity="1"><g transform="translate(168.974415, 107.349409)"><g><path d="M 8.621094 -1.707031 L 8.621094 0 L 10.214844 0 L 10.214844 -10.007812 L 8.621094 -10.007812 L 8.621094 -5.824219 C 8.621094 -4.414062 8.347656 -3.34375 7.824219 -2.546875 C 7.324219 -1.773438 6.4375 -1.386719 5.210938 -1.386719 C 4.527344 -1.386719 4.027344 -1.613281 3.730469 -2.070312 C 3.433594 -2.523438 3.296875 -3.09375 3.296875 -3.753906 L 3.296875 -10.007812 L 1.707031 -10.007812 L 1.707031 -3.753906 C 1.707031 -2.59375 2 -1.636719 2.640625 -0.886719 C 3.277344 -0.160156 4.140625 0.203125 5.277344 0.203125 C 6.757812 0.203125 7.871094 -0.433594 8.621094 -1.707031 Z M 8.621094 -1.707031 "/></g></g></g><g fill="#5e17eb" fill-opacity="1"><g transform="translate(185.102493, 107.349409)"><g><path d="M 3.320312 -13.464844 C 3.117188 -13.648438 2.867188 -13.761719 2.59375 -13.761719 C 2.320312 -13.761719 2.070312 -13.648438 1.886719 -13.464844 C 1.683594 -13.261719 1.59375 -13.011719 1.59375 -12.738281 C 1.59375 -12.464844 1.683594 -12.214844 1.886719 -12.035156 C 2.070312 -11.828125 2.320312 -11.738281 2.59375 -11.738281 C 2.867188 -11.738281 3.117188 -11.828125 3.320312 -12.035156 C 3.503906 -12.214844 3.617188 -12.464844 3.617188 -12.738281 C 3.617188 -13.011719 3.503906 -13.261719 3.320312 -13.464844 Z M 3.414062 0 L 3.414062 -10.007812 L 1.820312 -10.007812 L 1.820312 0 Z M 3.414062 0 "/></g></g></g><g fill="#5e17eb" fill-opacity="1"><g transform="translate(194.861682, 107.349409)"><g><path d="M 3.296875 0 L 3.296875 -17.0625 L 1.707031 -17.0625 L 1.707031 0 Z M 3.296875 0 "/></g></g></g><g fill="#5e17eb" fill-opacity="1"><g transform="translate(204.416159, 107.349409)"><g><path d="M 9.667969 -5.003906 C 9.667969 -4.027344 9.328125 -3.160156 8.644531 -2.457031 C 7.960938 -1.730469 7.121094 -1.363281 6.140625 -1.363281 C 5.140625 -1.363281 4.300781 -1.730469 3.617188 -2.457031 C 2.933594 -3.160156 2.617188 -4.027344 2.617188 -5.003906 C 2.617188 -5.960938 2.933594 -6.824219 3.617188 -7.550781 C 4.300781 -8.28125 5.140625 -8.644531 6.140625 -8.644531 C 7.121094 -8.644531 7.960938 -8.28125 8.644531 -7.550781 C 9.328125 -6.824219 9.667969 -5.960938 9.667969 -5.003906 Z M 11.261719 0 L 11.261719 -17.0625 L 9.667969 -17.0625 L 9.667969 -8.28125 C 9.578125 -8.417969 9.464844 -8.53125 9.371094 -8.644531 C 8.417969 -9.691406 7.257812 -10.238281 5.890625 -10.238281 C 4.503906 -10.238281 3.34375 -9.691406 2.386719 -8.644531 C 1.480469 -7.597656 1.023438 -6.390625 1.023438 -5.003906 C 1.023438 -3.59375 1.480469 -2.386719 2.386719 -1.363281 C 3.34375 -0.296875 4.503906 0.226562 5.890625 0.226562 C 7.257812 0.226562 8.417969 -0.296875 9.371094 -1.363281 C 9.464844 -1.457031 9.578125 -1.570312 9.667969 -1.707031 L 9.667969 0 Z M 11.261719 0 "/></g></g></g><g fill="#ffffff" fill-opacity="1"><g transform="translate(221.937383, 107.349409)"><g/></g></g><g fill="#7ed957" fill-opacity="1"><g transform="translate(232.636605, 107.349409)"><g><path d="M 5.984375 -7.277344 C 7.984375 -6.800781 9.347656 -6.277344 10.078125 -5.6875 C 10.578125 -5.277344 10.828125 -4.753906 10.828125 -4.117188 C 10.828125 -3.480469 10.691406 -2.957031 10.417969 -2.59375 C 9.734375 -1.636719 8.507812 -1.160156 6.777344 -1.160156 C 4.367188 -1.160156 3.003906 -1.980469 2.707031 -3.617188 L 0.839844 -3.617188 C 1.386719 -1 3.367188 0.296875 6.777344 0.296875 C 8.304688 0.296875 9.578125 -0.0234375 10.601562 -0.707031 C 11.828125 -1.5 12.464844 -2.683594 12.464844 -4.230469 C 12.464844 -5.503906 11.964844 -6.484375 10.964844 -7.164062 C 10.257812 -7.664062 9.121094 -8.121094 7.550781 -8.53125 C 5.960938 -8.941406 4.9375 -9.28125 4.457031 -9.53125 C 3.414062 -10.054688 2.890625 -10.78125 2.910156 -11.738281 C 2.910156 -12.238281 3.003906 -12.671875 3.230469 -12.988281 C 3.820312 -13.875 4.867188 -14.332031 6.371094 -14.332031 C 8.484375 -14.332031 9.691406 -13.648438 10.007812 -12.328125 L 11.738281 -12.328125 C 11.167969 -14.558594 9.371094 -15.695312 6.371094 -15.695312 C 5.003906 -15.695312 3.800781 -15.332031 2.796875 -14.605469 C 1.773438 -13.875 1.25 -12.808594 1.25 -11.351562 C 1.25 -9.371094 2.84375 -8.007812 5.984375 -7.277344 Z M 5.984375 -7.277344 "/></g></g></g><g fill="#7ed957" fill-opacity="1"><g transform="translate(250.243178, 107.349409)"><g><path d="M 11.488281 -5.230469 C 11.488281 -6.597656 10.941406 -7.78125 9.894531 -8.804688 C 8.871094 -9.78125 7.644531 -10.28125 6.253906 -10.28125 C 4.800781 -10.28125 3.570312 -9.757812 2.546875 -8.734375 C 1.523438 -7.710938 1.023438 -6.484375 1.023438 -5.050781 C 1.023438 -3.59375 1.523438 -2.367188 2.546875 -1.363281 C 3.027344 -0.886719 3.570312 -0.523438 4.207031 -0.25 C 4.84375 0.0234375 5.597656 0.160156 6.484375 0.160156 C 7.371094 0.160156 8.234375 -0.113281 9.097656 -0.660156 C 9.964844 -1.207031 10.601562 -1.980469 11.03125 -2.933594 L 9.210938 -2.933594 C 8.847656 -2.457031 8.417969 -2.09375 7.894531 -1.820312 C 7.371094 -1.546875 6.824219 -1.433594 6.253906 -1.433594 C 5.390625 -1.433594 4.617188 -1.707031 3.933594 -2.273438 C 3.253906 -2.820312 2.820312 -3.527344 2.683594 -4.390625 L 11.488281 -4.390625 Z M 9.804688 -5.753906 L 2.707031 -5.753906 C 2.796875 -6.164062 2.957031 -6.550781 3.183594 -6.914062 C 3.914062 -8.097656 4.9375 -8.691406 6.253906 -8.691406 C 7.097656 -8.691406 7.847656 -8.417969 8.507812 -7.871094 C 9.191406 -7.300781 9.597656 -6.597656 9.804688 -5.753906 Z M 9.804688 -5.753906 "/></g></g></g><g fill="#7ed957" fill-opacity="1"><g transform="translate(267.190115, 107.349409)"><g><path d="M 11.054688 -6.414062 C 10.738281 -7.53125 10.121094 -8.4375 9.234375 -9.144531 C 8.304688 -9.851562 7.277344 -10.214844 6.140625 -10.214844 C 4.707031 -10.214844 3.480469 -9.691406 2.503906 -8.667969 C 1.5 -7.644531 1.023438 -6.414062 1.023438 -5.003906 C 1.023438 -3.570312 1.5 -2.367188 2.503906 -1.320312 C 2.957031 -0.839844 3.480469 -0.453125 4.117188 -0.183594 C 4.730469 0.0898438 5.367188 0.226562 6.003906 0.226562 C 6.640625 0.226562 7.210938 0.160156 7.710938 -0.0234375 C 9.304688 -0.589844 10.394531 -1.660156 10.964844 -3.277344 L 9.167969 -3.277344 C 8.847656 -2.707031 8.4375 -2.253906 7.894531 -1.933594 C 7.347656 -1.59375 6.777344 -1.433594 6.140625 -1.433594 C 5.164062 -1.433594 4.34375 -1.773438 3.664062 -2.480469 C 2.980469 -3.183594 2.660156 -4.027344 2.660156 -5.003906 C 2.660156 -5.9375 2.980469 -6.777344 3.664062 -7.484375 C 3.980469 -7.800781 4.34375 -8.074219 4.777344 -8.257812 C 5.1875 -8.4375 5.710938 -8.554688 6.300781 -8.554688 C 6.890625 -8.554688 7.460938 -8.347656 8.050781 -7.960938 C 8.621094 -7.550781 9.054688 -7.050781 9.328125 -6.414062 Z M 11.054688 -6.414062 "/></g></g></g><g fill="#7ed957" fill-opacity="1"><g transform="translate(283.591146, 107.349409)"><g><path d="M 8.621094 -1.707031 L 8.621094 0 L 10.214844 0 L 10.214844 -10.007812 L 8.621094 -10.007812 L 8.621094 -5.824219 C 8.621094 -4.414062 8.347656 -3.34375 7.824219 -2.546875 C 7.324219 -1.773438 6.4375 -1.386719 5.210938 -1.386719 C 4.527344 -1.386719 4.027344 -1.613281 3.730469 -2.070312 C 3.433594 -2.523438 3.296875 -3.09375 3.296875 -3.753906 L 3.296875 -10.007812 L 1.707031 -10.007812 L 1.707031 -3.753906 C 1.707031 -2.59375 2 -1.636719 2.640625 -0.886719 C 3.277344 -0.160156 4.140625 0.203125 5.277344 0.203125 C 6.757812 0.203125 7.871094 -0.433594 8.621094 -1.707031 Z M 8.621094 -1.707031 "/></g></g></g><g fill="#7ed957" fill-opacity="1"><g transform="translate(299.719223, 107.349409)"><g><path d="M 6.847656 -7.9375 L 6.847656 -10.007812 C 6.527344 -10.144531 6.1875 -10.214844 5.847656 -10.214844 C 4.707031 -10.214844 3.890625 -9.578125 3.367188 -8.347656 L 3.296875 -7.9375 L 3.296875 -10.007812 L 1.707031 -10.007812 L 1.707031 0 L 3.296875 0 L 3.296875 -5.003906 C 3.296875 -5.824219 3.480469 -6.550781 3.867188 -7.210938 C 4.050781 -7.550781 4.300781 -7.847656 4.59375 -8.074219 C 4.890625 -8.304688 5.253906 -8.4375 5.664062 -8.4375 C 6.074219 -8.4375 6.460938 -8.257812 6.847656 -7.9375 Z M 6.847656 -7.9375 "/></g></g></g><g fill="#7ed957" fill-opacity="1"><g transform="translate(311.343593, 107.349409)"><g><path d="M 11.488281 -5.230469 C 11.488281 -6.597656 10.941406 -7.78125 9.894531 -8.804688 C 8.871094 -9.78125 7.644531 -10.28125 6.253906 -10.28125 C 4.800781 -10.28125 3.570312 -9.757812 2.546875 -8.734375 C 1.523438 -7.710938 1.023438 -6.484375 1.023438 -5.050781 C 1.023438 -3.59375 1.523438 -2.367188 2.546875 -1.363281 C 3.027344 -0.886719 3.570312 -0.523438 4.207031 -0.25 C 4.84375 0.0234375 5.597656 0.160156 6.484375 0.160156 C 7.371094 0.160156 8.234375 -0.113281 9.097656 -0.660156 C 9.964844 -1.207031 10.601562 -1.980469 11.03125 -2.933594 L 9.210938 -2.933594 C 8.847656 -2.457031 8.417969 -2.09375 7.894531 -1.820312 C 7.371094 -1.546875 6.824219 -1.433594 6.253906 -1.433594 C 5.390625 -1.433594 4.617188 -1.707031 3.933594 -2.273438 C 3.253906 -2.820312 2.820312 -3.527344 2.683594 -4.390625 L 11.488281 -4.390625 Z M 9.804688 -5.753906 L 2.707031 -5.753906 C 2.796875 -6.164062 2.957031 -6.550781 3.183594 -6.914062 C 3.914062 -8.097656 4.9375 -8.691406 6.253906 -8.691406 C 7.097656 -8.691406 7.847656 -8.417969 8.507812 -7.871094 C 9.191406 -7.300781 9.597656 -6.597656 9.804688 -5.753906 Z M 9.804688 -5.753906 "/></g></g></g><g clip-path="url(#efc6c4213f)"><g clip-path="url(#b10e6e9a13)"><path fill="#ff5757" d="M 4.894531 69.570312 L 18.46875 69.570312 L 18.46875 83.144531 L 4.894531 83.144531 Z M 4.894531 69.570312 " fill-opacity="1" fill-rule="nonzero"/></g></g><g clip-path="url(#687215ca49)"><g clip-path="url(#7a8c091c2b)"><path fill="#5e17eb" d="M 30.632812 69.3125 L 44.207031 69.3125 L 44.207031 82.886719 L 30.632812 82.886719 Z M 30.632812 69.3125 " fill-opacity="1" fill-rule="nonzero"/></g></g><path stroke-linecap="butt" transform="matrix(0.749962, -0.00756873, 0.00756873, 0.749962, 18.448158, 74.415554)" fill="none" stroke-linejoin="miter" d="M 0.00224542 2.498161 L 16.221799 2.500384 " stroke="#ffffff" stroke-width="5" stroke-opacity="1" stroke-miterlimit="4"/><path stroke-linecap="butt" transform="matrix(0, -0.75, 0.75, 0, 35.544248, 69.310918)" fill="none" stroke-linejoin="miter" d="M -0.00210939 2.498295 L 17.268725 2.498295 " stroke="#ffffff" stroke-width="5" stroke-opacity="1" stroke-miterlimit="4"/></svg>